HIERARCHY
ROOT hip
{
  OFFSET 0 0 0
  CHANNELS 6 Xposition Yposition Zposition Zrotation Yrotation Xrotation
  JOINT abdomen
  {
    OFFSET 0 20.6881 -0.73152
    CHANNELS 3 Zrotation Xrotation Yrotation
    JOINT chest
    {
      OFFSET 0 11.7043 -0.48768
      CHANNELS 3 Zrotation Xrotation Yrotation
      JOINT neck
      {
        OFFSET 0 22.1894 -2.19456
        CHANNELS 3 Zrotation Xrotation Yrotation
        JOINT head
        {
          OFFSET -0.24384 7.07133 1.2192
          CHANNELS 3 Zrotation Xrotation Yrotation
          JOINT leftEye
          {
            OFFSET 4.14528 8.04674 8.04672
            CHANNELS 3 Zrotation Xrotation Yrotation
            End Site
            {
              OFFSET 1 0 0
            }
          }
          JOINT rightEye
          {
            OFFSET -3.6576 8.04674 8.04672
            CHANNELS 3 Zrotation Xrotation Yrotation
            End Site
            {
              OFFSET 1 0 0
            }
          }
        }
      }
      JOINT rCollar
      {
        OFFSET -2.68224 19.2634 -4.8768
        CHANNELS 3 Zrotation Xrotation Yrotation
        JOINT rShldr
        {
          OFFSET -8.77824 -1.95073 1.46304
          CHANNELS 3 Zrotation Xrotation Yrotation
          JOINT rForeArm
          {
            OFFSET -28.1742 -1.7115 0.48768
            CHANNELS 3 Zrotation Xrotation Yrotation
            JOINT rHand
            {
              OFFSET -22.5879 0.773209 7.07136
              CHANNELS 3 Zrotation Xrotation Yrotation
              JOINT rThumb1
              {
                OFFSET -1.2192 -0.487915 3.41376
                CHANNELS 3 Zrotation Xrotation Yrotation
                JOINT rThumb2
                {
                  OFFSET -3.37035 -0.52449 3.41376
                  CHANNELS 3 Zrotation Xrotation Yrotation
                  End Site
                  {
                    OFFSET -1.78271 -1.18214 1.43049
                  }
                }
              }
              JOINT rIndex1
              {
                OFFSET -7.75947 0.938293 5.60832
                CHANNELS 3 Zrotation Xrotation Yrotation
                JOINT rIndex2
                {
                  OFFSET -2.54057 -0.884171 1.56538
                  CHANNELS 3 Zrotation Xrotation Yrotation
                  End Site
                  {
                    OFFSET -1.62519 -0.234802 1.16502
                  }
                }
              }
              JOINT rMid1
              {
                OFFSET -8.24714 1.18213 3.41376
                CHANNELS 3 Zrotation Xrotation Yrotation
                JOINT rMid2
                {
                  OFFSET -3.10165 -0.590103 1.0647
                  CHANNELS 3 Zrotation Xrotation Yrotation
                  End Site
                  {
                    OFFSET -2.48547 -0.328903 0.83742
                  }
                }
              }
              JOINT rRing1
              {
                OFFSET -8.82822 0.546677 1.51678
                CHANNELS 3 Zrotation Xrotation Yrotation
                JOINT rRing2
                {
                  OFFSET -2.60934 -0.819778 -0.0198488
                  CHANNELS 3 Zrotation Xrotation Yrotation
                  End Site
                  {
                    OFFSET -2.33842 -0.294052 0.168128
                  }
                }
              }
              JOINT rPinky1
              {
                OFFSET -8.27202 -0.0477905 -0.4584
                CHANNELS 3 Zrotation Xrotation Yrotation
                JOINT rPinky2
                {
                  OFFSET -1.82734 -0.647385 -0.700984
                  CHANNELS 3 Zrotation Xrotation Yrotation
                  End Site
                  {
                    OFFSET -1.69225 -0.51767 -0.607171
                  }
                }
              }
            }
          }
        }
      }
      JOINT lCollar
      {
        OFFSET 2.68224 19.2634 -4.8768
        CHANNELS 3 Zrotation Xrotation Yrotation
        JOINT lShldr
        {
          OFFSET 8.77824 -1.95073 1.46304
          CHANNELS 3 Zrotation Xrotation Yrotation
          JOINT lForeArm
          {
            OFFSET 28.1742 -1.7115 0.48768
            CHANNELS 3 Zrotation Xrotation Yrotation
            JOINT lHand
            {
              OFFSET 22.5879 0.773209 7.07136
              CHANNELS 3 Zrotation Xrotation Yrotation
              JOINT lThumb1
              {
                OFFSET 1.2192 -0.487915 3.41376
                CHANNELS 3 Zrotation Xrotation Yrotation
                JOINT lThumb2
                {
                  OFFSET 3.37035 -0.52449 3.41376
                  CHANNELS 3 Zrotation Xrotation Yrotation
                  End Site
                  {
                    OFFSET 1.78271 -1.18214 1.43049
                  }
                }
              }
              JOINT lIndex1
              {
                OFFSET 7.75947 0.938293 5.60832
                CHANNELS 3 Zrotation Xrotation Yrotation
                JOINT lIndex2
                {
                  OFFSET 2.54057 -0.884171 1.56538
                  CHANNELS 3 Zrotation Xrotation Yrotation
                  End Site
                  {
                    OFFSET 1.62519 -0.234802 1.16502
                  }
                }
              }
              JOINT lMid1
              {
                OFFSET 8.24714 1.18213 3.41376
                CHANNELS 3 Zrotation Xrotation Yrotation
                JOINT lMid2
                {
                  OFFSET 3.10165 -0.590103 1.0647
                  CHANNELS 3 Zrotation Xrotation Yrotation
                  End Site
                  {
                    OFFSET 2.48547 -0.328903 0.83742
                  }
                }
              }
              JOINT lRing1
              {
                OFFSET 8.82822 0.546677 1.51678
                CHANNELS 3 Zrotation Xrotation Yrotation
                JOINT lRing2
                {
                  OFFSET 2.60934 -0.819778 -0.0198488
                  CHANNELS 3 Zrotation Xrotation Yrotation
                  End Site
                  {
                    OFFSET 2.33842 -0.294052 0.168128
                  }
                }
              }
              JOINT lPinky1
              {
                OFFSET 8.27202 -0.0477905 -0.4584
                CHANNELS 3 Zrotation Xrotation Yrotation
                JOINT lPinky2
                {
                  OFFSET 1.82734 -0.647385 -0.700984
                  CHANNELS 3 Zrotation Xrotation Yrotation
                  End Site
                  {
                    OFFSET 1.69225 -0.51767 -0.607171
                  }
                }
              }
            }
          }
        }
      }
    }
  }
  JOINT rButtock
  {
    OFFSET -8.77824 4.35084 1.2192
    CHANNELS 3 Zrotation Xrotation Yrotation
    JOINT rThigh
    {
      OFFSET 0 -1.70687 -2.19456
      CHANNELS 3 Zrotation Xrotation Yrotation
      JOINT rShin
      {
        OFFSET 0 -36.8199 0.73152
        CHANNELS 3 Zrotation Xrotation Yrotation
        JOINT rFoot
        {
          OFFSET 0.73152 -45.1104 -5.12064
          CHANNELS 3 Zrotation Xrotation Yrotation
          End Site
          {
            OFFSET -1.1221 -3.69964 12.103
          }
        }
      }
    }
  }
  JOINT lButtock
  {
    OFFSET 8.77824 4.35084 1.2192
    CHANNELS 3 Zrotation Xrotation Yrotation
    JOINT lThigh
    {
      OFFSET 0 -1.70687 -2.19456
      CHANNELS 3 Zrotation Xrotation Yrotation
      JOINT lShin
      {
        OFFSET 0 -36.8199 0.73152
        CHANNELS 3 Zrotation Xrotation Yrotation
        JOINT lFoot
        {
          OFFSET -0.73152 -45.1104 -5.12064
          CHANNELS 3 Zrotation Xrotation Yrotation
          End Site
          {
            OFFSET 1.1221 -3.69964 12.103
          }
        }
      }
    }
  }
}
MOTION
Frames:	6
Frame Time:	0.00833333
31.1689 85.0697 -169.145 0.0 0.0 0.0 0.202513 -0.000639078 0.00577303 0.0558294 -0.000931047 0.00967162 7.31853e-15 0.0 -6.21199e-18 2.19874e-14 3.18055e-15 -9.31803e-18 -0.0 0.0 0.0 -0.0 0.0 0.0 3.72599e-15 -3.88251e-18 1.49089e-16 7.91134e-14 -1.42876e-16 1.19271e-15 1.3241e-12 -4.00551e-13 -6.36111e-15 1.51513e-11 3.73665e-13 1.90833e-14 3.5737e-11 -5.87346e-14 3.81667e-14 6.1702e-11 -1.04958e-13 5.80451e-14 3.57427e-11 -5.80451e-14 2.22639e-14 7.73091 5.47488 0.417314 3.57358e-11 -5.89397e-14 4.13472e-14 2.90554 0.965183 0.102902 3.57412e-11 -5.9039e-14 3.81667e-14 10.2786 0.731801 0.0259123 3.57365e-11 -5.92378e-14 4.77083e-14 2.22167 -0.733487 -0.20892 3.62929e-15 -3.49426e-18 -1.49089e-16 7.55889e-14 -3.10601e-17 -5.96354e-16 1.32545e-12 3.92799e-13 -1.59028e-14 1.5147e-11 -4.10962e-13 4.13472e-14 3.57378e-11 -4.07949e-14 3.49861e-14 6.17226e-11 -7.31528e-14 6.67917e-14 3.57343e-11 -3.81667e-14 5.08889e-14 -7.73091 5.47488 -0.417314 3.57372e-11 -4.06515e-14 3.49861e-14 -2.90554 0.965183 -0.102902 3.57292e-11 -4.09496e-14 3.89618e-14 -10.2786 0.731801 -0.0259123 3.57413e-11 -3.81667e-14 2.8625e-14 -2.22167 -0.733487 0.20892 -2.03217e-16 0.0 -3.88251e-19 0.677495 -3.60113 -0.0536496 -0.00454023 0.970121 -0.0387452 -0.524699 2.63023 0.113978 2.03217e-16 0.0 3.88251e-19 -0.369382 -2.81566 0.0342631 0.00682572 -0.452697 0.0599314 0.522478 3.26753 -0.126811
30.5669 83.1754 -171.507 -2.2661 1.9474 8.3808 0.588513 -2.33811 0.376368 0.327344 0.613534 0.100512 -0.518491 2.19559 -0.539466 1.18294 -8.41712 -0.691599 -0.0 0.0 0.0 -0.0 0.0 0.0 2.00253e-14 -8.08369e-14 6.86157e-15 22.8861 8.80768 -0.681771 -4.63017 -2.19245 7.13316 0.0574071 5.31904 0.735956 -2.65084e-10 1.99982e-10 5.96349e-11 -4.56763e-10 3.40284e-10 1.0786e-10 -2.65077e-10 1.99981e-10 5.96227e-11 7.73091 5.47488 0.417314 -2.65084e-10 1.9998e-10 5.96372e-11 2.90554 0.965183 0.102902 -2.65079e-10 1.99979e-10 5.96336e-11 10.2786 0.731801 0.0259123 -2.65086e-10 1.99979e-10 5.96418e-11 2.22167 -0.733487 -0.20892 1.98921e-14 -8.08367e-14 6.53155e-15 -22.6785 12.7751 0.75557 6.16461 -3.34 -8.97124 -0.00745076 -1.91492 0.268581 1.31033e-10 -6.92499e-11 -8.03601e-11 2.25806e-10 -1.20056e-10 -1.38573e-10 1.3103e-10 -6.92456e-11 -8.03452e-11 -7.73091 5.47488 -0.417314 1.31032e-10 -6.9249e-11 -8.03593e-11 -2.90554 0.965183 -0.102902 1.31025e-10 -6.92491e-11 -8.03566e-11 -10.2786 0.731801 -0.0259123 1.31035e-10 -6.92465e-11 -8.03636e-11 -2.22167 -0.733487 0.20892 -2.03217e-16 0.0 -3.88251e-19 0.829861 -8.66055 1.4255 0.0140498 9.13469 0.107719 -0.726035 -2.17004 -1.7362 2.03217e-16 0.0 3.88251e-19 -0.0902537 -9.00907 1.18129 -0.0149753 8.55795 -0.0955296 0.815677 -0.776141 2.82912
30.5328 83.1811 -171.525 -2.2882 1.8434 8.4839 1.03116 -4.809 0.769605 0.608188 1.25629 0.196539 -1.0224 4.5174 -1.11054 2.20448 -17.3065 -1.47017 -0.0 0.0 0.0 -0.0 0.0 0.0 4.03397e-14 -1.72423e-13 1.43964e-14 47.3235 18.1161 -1.46528 -8.93448 -4.39558 14.7045 -0.0329887 10.9413 1.53566 -6.32412e-10 4.57067e-10 1.14338e-10 -1.09016e-09 7.78218e-10 2.08319e-10 -6.32403e-10 4.57064e-10 1.14329e-10 7.73091 5.47488 0.417314 -6.32411e-10 4.57062e-10 1.14339e-10 2.90554 0.965183 0.102902 -6.32406e-10 4.5706e-10 1.14335e-10 10.2786 0.731801 0.0259123 -6.32416e-10 4.5706e-10 1.14342e-10 2.22167 -0.733487 -0.20892 4.01645e-14 -1.72423e-13 1.40298e-14 -47.0629 26.2703 1.70107 11.5587 -6.59874 -18.5525 0.00423884 -3.94057 0.553713 2.24757e-10 -1.72857e-10 -1.87224e-10 3.87155e-10 -2.99515e-10 -3.23043e-10 2.24756e-10 -1.72851e-10 -1.8721e-10 -7.73091 5.47488 -0.417314 2.24757e-10 -1.72855e-10 -1.87222e-10 -2.90554 0.965183 -0.102902 2.2475e-10 -1.72855e-10 -1.87221e-10 -10.2786 0.731801 -0.0259123 2.24759e-10 -1.72853e-10 -1.87224e-10 -2.22167 -0.733487 0.20892 -2.03217e-16 0.0 -3.88251e-19 1.27463 -13.9958 3.02811 -0.0138053 17.7657 0.272421 -1.27243 -7.22531 -3.69504 2.03217e-16 0.0 3.88251e-19 0.481607 -15.5454 2.46321 0.0173962 18.0832 -0.27102 1.57871 -5.02467 5.9711
30.5043 83.2841 -171.509 -2.2636 2.0355 8.3562 1.4518 -7.01187 1.12503 0.864524 1.84245 0.282321 -1.43076 6.58442 -1.62795 2.8847 -25.2358 -2.26911 -0.0 0.0 0.0 -0.0 0.0 0.0 5.26239e-14 -2.42503e-13 2.02865e-14 69.3492 26.4072 -2.25678 -12.2872 -6.17046 21.5145 -0.251559 15.9464 2.28639 -8.66726e-10 6.00065e-10 1.78828e-10 -1.49369e-09 1.02106e-09 3.23463e-10 -8.66716e-10 6.0006e-10 1.78823e-10 7.73091 5.47488 0.417314 -8.66724e-10 6.00057e-10 1.78829e-10 2.90554 0.965183 0.102902 -8.6672e-10 6.00055e-10 1.78824e-10 10.2786 0.731801 0.0259123 -8.66732e-10 6.00055e-10 1.7883e-10 2.22167 -0.733487 -0.20892 5.24178e-14 -2.42503e-13 1.98928e-14 -69.2809 38.2949 2.81709 15.452 -9.03906 -27.2332 0.0317357 -5.74424 0.809357 3.21622e-10 -2.07668e-10 -2.4115e-10 5.53972e-10 -3.60021e-10 -4.15853e-10 3.21622e-10 -2.07661e-10 -2.41137e-10 -7.73091 5.47488 -0.417314 3.21623e-10 -2.07666e-10 -2.41148e-10 -2.90554 0.965183 -0.102902 3.21616e-10 -2.07665e-10 -2.41148e-10 -10.2786 0.731801 -0.0259123 3.21624e-10 -2.07663e-10 -2.41148e-10 -2.22167 -0.733487 0.20892 -2.03217e-16 0.0 -3.88251e-19 1.95666 -18.7316 4.57777 -0.0849843 25.4632 0.439201 -2.07235 -11.72 -5.5486 2.03217e-16 0.0 3.88251e-19 1.26028 -21.3613 3.68519 0.101474 26.5786 -0.450909 2.65929 -8.76258 8.84384
30.4669 83.3139 -171.527 -2.2764 1.9266 8.4862 1.75304 -8.5458 1.37886 1.06361 2.28715 0.342375 -1.68796 8.01667 -2.00217 3.19034 -30.7793 -2.93906 -0.0 0.0 0.0 -0.0 0.0 0.0 4.48326e-14 -2.58818e-13 2.20651e-14 84.8259 32.1704 -2.86392 -14.375 -7.26111 26.3117 -0.485986 19.4186 2.83979 -7.68508e-10 4.57844e-10 2.6779e-10 -1.32256e-09 7.76183e-10 4.75314e-10 -7.68498e-10 4.57839e-10 2.67787e-10 7.73091 5.47488 0.417314 -7.68505e-10 4.57836e-10 2.6779e-10 2.90554 0.965183 0.102902 -7.68502e-10 4.57835e-10 2.67785e-10 10.2786 0.731801 0.0259123 -7.68514e-10 4.57834e-10 2.6779e-10 2.22167 -0.733487 -0.20892 4.46234e-14 -2.58818e-13 2.16675e-14 -85.1235 46.673 3.84592 17.7028 -10.3707 -33.357 0.0603622 -6.99342 0.987821 4.26341e-10 -7.04906e-11 -1.62733e-10 7.34458e-10 -1.23142e-10 -2.79508e-10 4.26341e-10 -7.04811e-11 -1.6272e-10 -7.73091 5.47488 -0.417314 4.26342e-10 -7.04875e-11 -1.6273e-10 -2.90554 0.965183 -0.102902 4.26334e-10 -7.04871e-11 -1.62731e-10 -10.2786 0.731801 -0.0259123 4.26342e-10 -7.04855e-11 -1.6273e-10 -2.22167 -0.733487 0.20892 -2.03217e-16 0.0 -3.88251e-19 2.65531 -22.0102 5.82697 -0.165372 30.8274 0.574954 -2.8572 -14.8601 -7.02616 2.03217e-16 0.0 3.88251e-19 1.97041 -25.409 4.56347 0.197888 32.5 -0.598804 3.64844 -11.326 10.9282
30.415 83.3464 -171.524 -2.2845 2.0228 8.4534 1.85465 -9.14348 1.48596 1.18748 2.54497 0.366354 -1.77018 8.56146 -2.17117 3.23249 -33.0074 -3.28381 -0.0 0.0 0.0 -0.0 0.0 0.0 1.10778e-15 -1.90396e-13 1.73956e-14 90.8386 34.4044 -3.03399 -15.1543 -7.6605 28.2323 -0.595691 20.749 3.06097 -9.13483e-11 -2.01457e-10 4.30518e-10 -1.50438e-10 -3.53546e-10 7.44885e-10 -9.13416e-11 -2.0146e-10 4.30515e-10 7.73091 5.47488 0.417314 -9.13456e-11 -2.01462e-10 4.30518e-10 2.90554 0.965183 0.102902 -9.13426e-11 -2.01462e-10 4.30514e-10 10.2786 0.731801 0.0259123 -9.13541e-11 -2.01462e-10 4.30518e-10 2.22167 -0.733487 -0.20892 9.42251e-16 -1.90396e-13 1.70314e-14 -91.3145 49.9858 4.18867 18.4868 -10.7891 -35.7547 0.0734567 -7.46976 1.05625 5.84364e-10 3.9582e-10 1.55487e-10 1.00708e-09 6.82753e-10 2.72252e-10 5.84364e-10 3.95833e-10 1.55501e-10 -7.73091 5.47488 -0.417314 5.84366e-10 3.95824e-10 1.55491e-10 -2.90554 0.965183 -0.102902 5.84357e-10 3.95825e-10 1.55489e-10 -10.2786 0.731801 -0.0259123 5.84365e-10 3.95825e-10 1.55488e-10 -2.22167 -0.733487 0.20892 -2.03217e-16 0.0 -3.88251e-19 3.09771 -23.2756 6.54393 -0.204426 32.9263 0.63774 -3.32012 -16.1422 -7.89995 2.03217e-16 0.0 3.88251e-19 2.29072 -27.0034 4.81809 0.245881 34.818 -0.664197 4.10569 -12.3247 11.809
